<svg xmlns="http://www.w3.org/2000/svg" viewBox="0 0 43 43" fill="rgba(25, 33, 68, 0.3)"><path d="M20.3 26c-.8-1.4-1.6-2.7-2.4-4.1-.4-.7-.4-1.3 0-1.8.6-.8 1.8-.8 2.3.1.3.4.5.9.8 1.3.1.2.3.5.6.3s.2-.4.1-.7c-.3-.6-.7-1.1-1-1.7-.4-.8-.2-1.6.5-2 .7-.4 1.5-.2 2 .5.4.5.7 1.1 1 1.7.1.2.3.5.6.3s.2-.4 0-.7c-.2-.4-.5-.8-.7-1.3-.4-.7-.2-1.5.5-1.9.7-.4 1.5-.2 1.9.5.4.7.8 1.4 1.2 2 .1.2.3.5.6.4.4-.2.2-.5.1-.7-.1-.2-.3-.5-.4-.7-.4-.7-.1-1.5.5-1.9.7-.4 1.5-.2 2 .5 1.5 2.5 3 5.1 3.9 7.9.4 1.2.9 2.3 1 3.6.2 1.6-.4 2.9-1.8 3.7-1.4.8-2.7 1.6-4.1 2.3-1.5.8-3 .8-4.5-.2-3.1-2.1-6.1-4.2-9.2-6.4-.9-.6-1.1-1.6-.5-2.4.5-.8 1.6-.9 2.4-.3.9.6 1.7 1.2 2.6 1.7-.1 0 0 0 0 0zm4.1.2c-.2 0-.3.1-.3.2-.1.2 0 .4.1.5.9 1.1 1.9 2.1 2.9 3.2.2.2.4.4.6.1.2-.2.1-.4-.1-.6-.9-1.1-1.9-2.1-2.8-3.2-.1-.1-.2-.2-.4-.2zm7.4 1.5v-.1c-.5-1.4-1-2.8-1.4-4.2-.1-.2-.3-.3-.5-.2-.2.1-.3.3-.2.5v.1c.5 1.4.9 2.7 1.4 4.1 0 .1.1.1.1.2.1.2.3.2.4.2.2-.3.2-.4.2-.6zm-2 1.2c0-.1-.1-.2-.1-.2l-2.1-3.6c-.1-.2-.3-.5-.7-.3-.3.2-.1.5 0 .7.6 1.1 1.3 2.2 1.9 3.3.1.2.2.3.3.5.1.1.2.1.4.1.3-.2.4-.4.3-.5z"/><path d="M29 43c-3 0-6.1-.1-9.1 0-2.3.1-4.8-1.6-4.8-4.6v-8.3c0-.2 0-.4.1-.5.2-.1.3.1.4.2.8.5 1.5 1.1 2.3 1.6.3.2.4.4.4.8v6c0 1.2.5 1.7 1.7 1.7h17.8c1.2 0 2-.4 2-1.9V20.2c0-1.1-.5-1.6-1.6-1.6h-2.7c-.5 0-.8-.1-1-.6-.4-.7-.8-1.5-1.3-2.2-.2-.3-.2-.5.2-.5 1.8 0 3.7-.2 5.5.1 2.5.3 4 2.1 4 4.6v13.9c0 1.7.1 3.4-.1 5.1-.2 2.2-2.1 3.9-4.3 3.9-3.1.1-6.3.1-9.5.1zM1.5 6.2H.3c-.3 0-.4-.1-.4-.4 0-.9-.1-1.8.2-2.7C.8 1.2 2.4 0 4.4 0 6 0 5.8-.2 5.8 1.4v1.2c0 .4-.1.5-.5.5h-.8c-.8 0-1.3.6-1.3 1.4v1.2c-.1.3-.2.5-.5.5H1.5zM26.2 6.2H25c-.3 0-.4-.1-.4-.4V4.6c0-.8-.6-1.4-1.4-1.4H23c-1.1 0-1.1 0-1.1-1.2V.5c0-.2 0-.4.3-.4 1.2-.1 2.4 0 3.5.7 1.3.9 2 2.1 2 3.6 0 .4 0 .9.1 1.3 0 .3-.1.5-.5.5h-1.1zM5.8 26.1v1.2c0 .2-.1.4-.4.4-2 .1-3.8-.4-5-2.4-.5-.8-.6-1.7-.5-2.6 0-.3.1-.4.4-.4h2.4c.3 0 .4.1.4.4v.6c0 .8.6 1.3 1.3 1.3 1.4-.1 1.4-.1 1.4 1.5zM3.1 17.6v1.7c0 .3-.1.5-.5.5H.3c-.3 0-.5-.2-.5-.5v-3.5c0-.3.1-.5.5-.5h2.3c.3 0 .5.2.4.5.1.6.1 1.2.1 1.8zM3.1 10.8v1.7c0 .3-.1.5-.5.5H.3c-.3 0-.5-.2-.5-.5V9.1c0-.3.1-.5.5-.5h2.3c.4 0 .5.1.5.5v1.7zM10.4 24.4h1.7c.3 0 .5.1.5.5v2.3c0 .3-.1.4-.4.4H8.7c-.3 0-.4-.1-.4-.4v-2.3c0-.4.2-.5.5-.5h1.6zM17.3 3.1h-1.8c-.3 0-.4-.1-.4-.4V.4c0-.3.1-.4.4-.4h3.6c.3 0 .4.1.4.4v2.3c0 .3-.1.4-.4.4h-1.8zM24.6 10.8V9.1c0-.3.1-.5.5-.5h2.3c.2 0 .4 0 .4.4v3.5c0 .4-.1.5-.6.5H25c-.4 0-.5-.1-.5-.5.1-.6.1-1.2.1-1.7zM10.4 3.1H8.7c-.4.1-.5-.1-.5-.4V.5c0-.3.1-.5.5-.5h3.5c.3 0 .4.1.4.4v2.3c0 .3-.1.4-.5.4h-1.7z"/></svg>
