<svg id="Layer_1" xmlns="http://www.w3.org/2000/svg" viewBox="0 0 86 36" fill="#2243c7"><path class="st0" d="M81 11.6c2.7-2.7 2.7-7 0-9.6-2.7-2.7-7-2.7-9.6 0l-1.6 1.6L68.2 2c-2.7-2.7-7-2.7-9.6 0-2.7 2.7-2.7 7 0 9.6l1.6 1.6 9.6 9.6 9.6-9.6 1.6-1.6zm-11.2 8.1l-6.4-6.4-3.3-3.3c-1.8-1.8-1.8-4.6 0-6.4 1.8-1.8 4.6-1.8 6.4 0l3.2 3.2L73 3.6c1.8-1.8 4.6-1.8 6.4 0 1.8 1.8 1.8 4.6 0 6.4l-3.2 3.2-6.4 6.5zM65.6 24c-1 0-1.9.4-2.6 1.1l-.5.5-.5-.5c-.7-.7-1.6-1.1-2.6-1.1s-1.9.4-2.6 1.1c-.7.7-1.1 1.6-1.1 2.6s.4 1.9 1.1 2.6l5.7 5.7 5.7-5.7c.7-.7 1.1-1.6 1.1-2.6s-.4-1.9-1.1-2.6c-.7-.7-1.6-1.1-2.6-1.1zm1.2 4.9l-4.3 4.3-4.3-4.3c-.3-.3-.5-.8-.5-1.3s.2-.9.5-1.3c.3-.3.8-.5 1.3-.5s.9.2 1.3.5l1.8 1.8 1.8-1.8c.3-.3.8-.5 1.3-.5s.9.2 1.3.5c.5.8.5 2-.2 2.6zM72 28h2v8h-2zM84.6 28H81v-3.6c0-.4-.3-.7-.7-.7h-.7l-3.1 3.9c-.3.4-.5.8-.5 1.3v5.6c0 .8.6 1.4 1.4 1.4H82c.8 0 1.6-.5 1.9-1.2l2.1-4.2v-1.1c0-.7-.6-1.4-1.4-1.4zM34.1 0h-28C2.6 0 0 2.5 0 5.8v24.3C0 33.5 2.6 36 6.2 36h27.9c3.5 0 6.1-2.5 6.1-5.7V5.8c0-3.3-2.6-5.8-6.1-5.8zM6.3 2.3h27.8c1.6 0 2.8.8 3.4 2.1.3.6.2 1.3.2 2 0 .2-.1.3-.3.3H3.3c-.8 0-.8 0-.8-.8 0-2.2 1.4-3.6 3.8-3.6zM34 33.7H6.2c-2.3 0-3.7-1.4-3.7-3.5V9.9c0-.7 0-.7.8-.7H37c.8 0 .8 0 .8.7v20.3c-.1 2.1-1.5 3.5-3.8 3.5zM52 15.8V1.5c0-1-.5-1.4-1.5-1.4h-4.1c-1.1 0-1.6.4-1.6 1.5v28.5c0 .4.1.8.3 1.1.7 1.3 1.4 2.7 2.1 4 .3.5.6.9 1.2.9s1-.3 1.2-.8l2.1-3.9c.2-.4.3-.9.3-1.4V15.8zm-3.6 16.3c-.4-.9-1.2-1.7-1.2-2.8V3.2c0-.8 0-.8.8-.8 1.4 0 1.4 0 1.4 1.4v25.4c.2 1.1-.5 1.9-1 2.9z"/><path class="st0" d="M8.5 24.8h9c1 0 1.4-.4 1.4-1.3v-8.6c0-1-.4-1.4-1.4-1.4H8.6c-1 0-1.5.5-1.5 1.4v8.5c0 .9.4 1.4 1.4 1.4zM31.7 26.9H8.6c-.9 0-1.5.5-1.5 1.2s.6 1.2 1.5 1.2h23.1c.9 0 1.4-.5 1.4-1.2s-.5-1.2-1.4-1.2zM31.7 18h-9.1c-.8 0-1.4.5-1.4 1.1 0 .7.5 1.2 1.3 1.2h9.2c.9 0 1.4-.5 1.4-1.2s-.5-1.1-1.4-1.1zM27.1 24.8h4.7c.8 0 1.2-.4 1.3-1.1 0-.7-.5-1.2-1.4-1.2h-9.1c-.9 0-1.4.5-1.4 1.2s.6 1.1 1.4 1.1h4.5zM31.8 13.5h-9.2c-.8 0-1.4.5-1.4 1.2s.6 1.1 1.4 1.1h9.2c.3 0 .5 0 .7-.2.5-.3.7-.8.6-1.3-.2-.4-.6-.8-1.3-.8z"/></svg>
