<svg xmlns="http://www.w3.org/2000/svg" viewBox="0 0 19 17" fill="rgba(25, 33, 68, 0.3)"><path d="M19 9.3c-.1.4-.1.9-.2 1.3-.4 1.6-1.1 3-2.2 4.3-.3.3-.3.3-.6 0l-.9-.9c-.1-.1-.1-.2 0-.3.5-.5.9-1.2 1.2-1.8 1.4-2.8.9-6.2-1.2-8.4-.2-.2-.5-.5-.8-.7-.1.1 0 .1 0 .2v2.5c0 .2-.1.2-.2.2h-1.5c-.2 0-.2-.1-.2-.2V.2c0-.1 0-.2.2-.2h5.3c.1 0 .2 0 .2.2v1.5c0 .2-.1.2-.2.2h-1.5c.1.2.2.3.3.4 1.3 1.5 2 3.2 2.3 5.2v1.8zM0 7.7c.1-.5.1-1 .2-1.5.4-1.6 1.2-3.1 2.4-4.3.1-.1.1-.1.2 0 .4.4.8.7 1.2 1.1.1.1.1.2 0 .3C3.3 4.1 2.7 5 2.4 6c-.9 2.7-.5 5.2 1.4 7.4.2.3.5.5.8.7 0 0 .1.1.2.1V14v-2.5c0-.2 0-.3.2-.2h1.5c.2 0 .2.1.2.2v5.3c0 .2-.1.2-.2.2H1.2c-.3 0-.3 0-.3-.3v-1.5c0-.2.1-.2.2-.2h1.5c-.1-.2-.2-.3-.3-.4C1 13.2.3 11.5 0 9.5v-.3-1.5z"/></svg>
