<svg xmlns="http://www.w3.org/2000/svg" viewBox="0 0 21 18"><path d="M18.4 10c1.1 1.9.4 4.4-1.6 5.5-.6.3-1.3.5-2.1.5h-4.2c-2.3 0-4.2-1.8-4.2-4s1.9-4 4.2-4h1c.6 0 1-.4 1-1s-.5-1-1-1h-1C7 6 4.2 8.7 4.2 12s2.8 6 6.3 6h4.2c3.5 0 6.3-2.7 6.3-6 0-1-.3-2.1-.8-3-.3-.5-.9-.6-1.4-.3-.6.2-.7.9-.4 1.3zM2.6 8c-1.1-2-.4-4.4 1.6-5.5.7-.3 1.4-.5 2.1-.5h4.2c2.3 0 4.2 1.8 4.2 4s-1.9 4-4.2 4h-1c-.6 0-1 .4-1 1s.5 1 1 1h1c3.5 0 6.3-2.7 6.3-6S14 0 10.5 0H6.3C2.8 0 0 2.7 0 6c0 1 .3 2.1.8 3 .3.5.9.6 1.4.3s.7-.9.4-1.3z"/></svg>