<svg xmlns="http://www.w3.org/2000/svg" viewBox="0 0 21 20"><path d="M21 15.4v-2.1c0-.3 0-.3-.3-.3h-3.5c-.2 0-.3.1-.3.3v3.6c0 .3 0 .3.3.3h2.1c.2 0 .2.1.2.2-.1.5-.5 1-1 1.1-.2 0-.3.1-.3.4v.8c0 .3 0 .3.3.3 1.3-.1 2.3-1.4 2.3-2.7.2-.7.2-1.3.2-1.9zM15 15.4v-2.1c0-.3 0-.3-.3-.3h-3.5c-.2 0-.3.1-.3.3v3.6c0 .3 0 .3.3.3h2.1c.2 0 .2.1.2.2-.1.5-.5 1-1 1.1-.2 0-.3.1-.3.4v.8c0 .3 0 .3.3.3 1.3-.1 2.3-1.4 2.3-2.7.2-.7.2-1.3.2-1.9zM0 4.6v2.1C0 7 0 7 .3 7h3.5c.1 0 .2-.1.2-.3V3.1c0-.3 0-.3-.3-.3H1.6c-.2 0-.2-.1-.2-.2.1-.5.5-1 1-1.1.2 0 .3-.1.3-.4V.3c0-.3-.1-.3-.4-.3C1 .2 0 1.4 0 2.7v1.9zM6 4.6v2.1c0 .3 0 .3.3.3h3.5c.1 0 .2-.1.2-.3V3.1c0-.3 0-.3-.3-.3H7.6c-.2 0-.2-.1-.2-.2.1-.5.5-1 1-1.1.2 0 .3-.1.3-.4V.3c0-.3-.1-.3-.4-.3C7 .2 6 1.4 6 2.7v1.9zM12 5h9v2h-9zM0 13h9v2H0zM0 9h21v2H0z"/></svg>