<svg id="Layer_1" xmlns="http://www.w3.org/2000/svg" viewBox="0 0 128 23.7"><style>.st1{fill:#fff}</style><path d="M.3 22.9s-.4-4.3-.3-8.2C.1 9.3 1.9 2.9 10.8 0c0 0 .9 4.7 1.2 9.2.4 5.4-4.2 12.6-11.7 13.7z" fill="#2343c8"/><path class="st1" d="M30.8 22.7c-.1-.1-.2-.3-.2-.5V8.8c0-.2.1-.4.2-.5.1-.1.3-.2.5-.2h2.3c.2 0 .4.1.5.2.1.1.2.3.2.5V10c1-1.3 2.3-1.9 4.1-1.9h1.2c.2 0 .4.1.5.2.1.1.2.3.2.5v2.1c0 .2-.1.4-.2.5-.1.1-.3.2-.5.2h-2.3c-.9 0-1.6.3-2.1.8s-.8 1.2-.8 2.1v7.8c0 .2-.1.4-.2.5-.1.1-.3.2-.5.2h-2.5c-.1-.1-.3-.2-.4-.3zM42.9 21.3c-1.3-1.2-1.9-2.9-2-5.2v-.7c0-2.4.6-4.2 1.9-5.6 1.3-1.4 3-2 5.2-2 2.3 0 4 .7 5.3 2 1.2 1.4 1.8 3.2 1.8 5.5v.6c0 .2-.1.4-.2.5-.1.1-.3.2-.5.2h-9.5v.2c0 1.1.3 1.9.9 2.6.5.7 1.3 1 2.2 1 1.1 0 2-.4 2.7-1.3l.4-.4c.1 0 .3-.1.5-.1H54c.2 0 .3 0 .4.1.1.1.2.2.2.4 0 .5-.3 1-.8 1.6-.5.6-1.3 1.2-2.3 1.6-1 .5-2.2.7-3.5.7-2.2.2-3.8-.5-5.1-1.7zm8.2-7.1c0-1.2-.3-2.1-.8-2.7s-1.3-1-2.3-1c-1 0-1.7.3-2.3 1-.6.7-.8 1.6-.8 2.7v.1h6.2zM58.9 22.6c-.8-.4-1.5-.9-1.9-1.6-.5-.7-.7-1.4-.7-2.2 0-1.3.5-2.3 1.6-3.1 1-.8 2.5-1.3 4.3-1.6l3.9-.6v-.6c0-.8-.2-1.4-.6-1.8-.4-.4-1.1-.6-2-.6-.6 0-1.1.1-1.5.3-.4.2-.7.5-.9.7l-.5.5c-.1.2-.2.3-.4.3H58c-.2 0-.3-.1-.4-.2-.1-.1-.2-.3-.2-.5 0-.5.3-1 .7-1.6.4-.6 1.1-1.1 2.1-1.6.9-.4 2.1-.7 3.5-.7 2.3 0 3.9.5 4.9 1.5 1 1 1.5 2.3 1.5 4v8.9c0 .2-.1.4-.2.5-.1.1-.3.2-.5.2H67c-.2 0-.4-.1-.5-.2-.1-.1-.2-.3-.2-.5V21c-.4.6-1 1.1-1.8 1.5-.8.4-1.7.6-2.9.6-1 .1-1.9-.1-2.7-.5zm6.2-3.2c.7-.7 1-1.7 1-3v-.6l-2.9.5c-2.2.3-3.3 1.1-3.3 2.2 0 .6.3 1.1.8 1.4.5.3 1.1.5 1.8.5 1.1 0 1.9-.3 2.6-1zM73.8 21.3c-1-1.2-1.6-2.9-1.7-4.9v-1.8c.1-2 .6-3.6 1.7-4.9s2.5-1.9 4.5-1.9c1.8 0 3.3.6 4.4 1.9V3.4c0-.2.1-.4.2-.5.1-.1.3-.2.5-.2h2.5c.2 0 .4.1.5.2.1.1.2.3.2.5v18.8c0 .2-.1.4-.2.5-.1.1-.3.2-.5.2h-2.3c-.2 0-.4-.1-.5-.2-.1-.1-.2-.3-.2-.5v-1.1c-1.1 1.3-2.6 2-4.6 2-1.9.1-3.4-.6-4.5-1.8zm8-2.3c.5-.7.8-1.5.9-2.6v-1.1-1.1c0-.9-.3-1.8-.9-2.4-.6-.7-1.4-1-2.4-1-2 0-3.1 1.3-3.3 3.8v1.8c.1 2.5 1.2 3.8 3.3 3.8 1.1-.1 1.9-.5 2.4-1.2zM89.7 22.7c-.1-.1-.2-.3-.2-.5V8.8c0-.2.1-.4.2-.5.1-.1.3-.2.5-.2h2.3c.2 0 .4.1.5.2.1.1.2.3.2.5v1c1-1.3 2.4-1.9 4.2-1.9 2.1 0 3.6.8 4.4 2.5.5-.8 1.1-1.4 1.9-1.8.8-.5 1.7-.7 2.7-.7 1.6 0 2.8.5 3.8 1.6s1.5 2.6 1.5 4.6v8.2c0 .2-.1.4-.2.5-.1.1-.3.2-.5.2h-2.4c-.2 0-.4-.1-.5-.2-.1-.1-.2-.3-.2-.5v-7.9c0-1.2-.3-2.1-.8-2.6s-1.2-.8-2-.8c-.7 0-1.4.3-1.9.8s-.8 1.4-.8 2.6v7.9c0 .2-.1.4-.2.5-.1.1-.3.2-.5.2h-2.4c-.2 0-.4-.1-.5-.2-.1-.1-.2-.3-.2-.5v-7.9c0-1.2-.3-2-.8-2.6-.5-.5-1.2-.8-2-.8-.7 0-1.4.3-1.9.8s-.8 1.4-.8 2.6v7.9c0 .2-.1.4-.2.5-.1.1-.3.2-.5.2H90c0-.1-.2-.2-.3-.3zM115.8 21.3c-1.3-1.2-1.9-2.9-2-5.2v-.7c0-2.4.6-4.2 1.9-5.6 1.3-1.4 3-2 5.2-2 2.3 0 4 .7 5.3 2 1.2 1.4 1.8 3.2 1.8 5.5v.6c0 .2-.1.4-.2.5-.1.1-.3.2-.5.2h-9.5v.2c0 1.1.3 1.9.9 2.6.5.7 1.3 1 2.2 1 1.1 0 2-.4 2.7-1.3l.4-.4c.1 0 .3-.1.5-.1h2.5c.2 0 .3 0 .4.1.1.1.2.2.2.4 0 .5-.3 1-.8 1.6-.5.6-1.3 1.2-2.3 1.6-1 .5-2.2.7-3.5.7-2.2.2-3.9-.5-5.2-1.7zm8.2-7.1c0-1.2-.3-2.1-.8-2.7-.6-.7-1.3-1-2.3-1-1 0-1.7.3-2.3 1-.6.7-.8 1.6-.8 2.7v.1h6.2z"/><path d="M.3 22.9s1.1-3.3 3.3-8.3C5.9 9.2 10.9 5.2 21 6.7c0 0-1.4 5-3.4 9.5-2.3 5.4-9.5 9.2-17.3 6.7z" fill="#a0b4eb"/></svg>