<svg xmlns="http://www.w3.org/2000/svg" viewBox="0 0 32 30" fill="#ffffff"><path d="M6 22c-.1 0-.3 0-.4-.1-.4-.1-.6-.5-.6-.9v-3H1c-.6 0-1-.4-1-1V1c0-.6.4-1 1-1h22c.6 0 1 .4 1 1v16c0 .6-.4 1-1 1H10.4l-3.7 3.7c-.2.2-.4.3-.7.3zm-4-6h4c.6 0 1 .4 1 1v1.6l2.3-2.3c.2-.2.4-.3.7-.3h12V2H2v14z"/><path d="M18 30c-.1 0-.3 0-.4-.1-.4-.1-.6-.5-.6-.9v-3h-4c-.6 0-1-.4-1-1v-4c0-.6.4-1 1-1s1 .4 1 1v3h4c.6 0 1 .4 1 1v1.6l2.3-2.3c.2-.2.4-.3.7-.3h8V10h-3c-.6 0-1-.4-1-1s.4-1 1-1h4c.6 0 1 .4 1 1v16c0 .6-.4 1-1 1h-8.6l-3.7 3.7c-.2.2-.4.3-.7.3zM6 6h12v2H6zM6 10h12v2H6z"/></svg>
