<svg xmlns="http://www.w3.org/2000/svg" viewBox="0 0 70 58" fill="#2243c7"><path d="M18.3 39.8v-3.2h3.2v-7.7h-3.2v-3.2h-7.8v3.2H7.3v7.7h3.2v3.2zM29 26.2c-.8 0-1.4.6-1.4 1.4 0 .8.6 1.4 1.4 1.4h2.7c.8 0 1.4-.6 1.4-1.4 0-.8-.6-1.4-1.4-1.4H29z"/><ellipse cx="55.6" cy="27.6" rx="2.8" ry="2.8"/><ellipse cx="55.6" cy="37.9" rx="2.8" ry="2.8"/><ellipse cx="60.8" cy="32.8" rx="2.8" ry="2.8"/><ellipse cx="50.4" cy="32.8" rx="2.8" ry="2.8"/><path d="M28.9 39.2l1-2.8h-3.6c-.6 0-1.1.3-1.3.8-1.8 4.2-6 7-10.7 7-6.3 0-11.5-5.1-11.5-11.4 0-6.3 5.2-11.5 11.6-11.5h21.1l1-2.8H14.4C6.5 18.5 0 24.9 0 32.8 0 40.6 6.5 47 14.4 47c5.5 0 10.4-3 12.9-7.8h1.6zM55.6 18.5H42.5L48.9.9 46.3 0l-6.7 18.5-1 2.8L33 36.5l-1 2.8-6.5 17.8 2.6.9 6.8-18.8h7.8C45.2 44 50.1 47 55.6 47c8 0 14.4-6.4 14.4-14.3 0-7.8-6.5-14.2-14.4-14.2zm0 25.7c-4.6 0-8.8-2.7-10.7-7-.2-.5-.7-.8-1.3-.8H36l2.7-7.5H41c.8 0 1.4-.6 1.4-1.4 0-.8-.6-1.4-1.4-1.4h-1.3l1.8-4.9h14.1c6.4 0 11.6 5.2 11.6 11.5S62 44.2 55.6 44.2z"/></svg>
