<svg xmlns="http://www.w3.org/2000/svg" viewBox="0 0 32 32" fill="#ffffff"><path fill="none" d="M0 0h32v32H0z"/><path d="M16 0C7.2 0 0 7.2 0 16s7.2 16 16 16 16-7.2 16-16S24.8 0 16 0zM2.1 17h5c.1 1.9.3 3.5.7 5H3.4c-.8-1.5-1.2-3.2-1.3-5zM17 8V2.2c.9.7 3 2.5 4.4 5.8H17zm5.2 2c.4 1.4.7 3.1.8 5h-6v-5h5.2zm-7.7-7.4c.2-.1.3-.3.5-.4V8h-4.4c.5-1.2 1.1-2.2 1.7-3 .8-1.1 1.6-1.9 2.2-2.4zM15 10v5H9c.1-1.9.4-3.6.8-5H15zm-8 5H2c.1-1.8.6-3.5 1.3-5h4.4c-.3 1.5-.6 3.1-.7 5zm2 2h6v5H9.8c-.4-1.4-.7-3.1-.8-5zm6 7v5.8c-.9-.7-3-2.5-4.4-5.8H15zm2.5 5.4c-.2.1-.3.3-.5.4V24h4.4c-.5 1.2-1.1 2.2-1.7 3-.8 1.1-1.6 1.9-2.2 2.4zM17 22v-5h6c-.1 1.9-.4 3.6-.8 5H17zm8-5h5c-.1 1.8-.6 3.5-1.3 5h-4.4c.3-1.5.6-3.1.7-5zm0-2c-.1-1.9-.3-3.5-.7-5h4.4c.7 1.5 1.2 3.2 1.3 5h-5zm2.5-7h-3.9c-.9-2.3-2-4-3.1-5.3 2.8 1 5.3 2.9 7 5.3zm-16-5.3c-1 1.3-2.2 3-3.1 5.3H4.5c1.7-2.4 4.2-4.3 7-5.3zM4.5 24h3.9c.9 2.3 2 4 3.1 5.2-2.8-.9-5.3-2.8-7-5.2zm16 5.3c1.1-1.2 2.2-3 3.1-5.2h3.9c-1.7 2.3-4.2 4.2-7 5.2z"/></svg>
