<svg xmlns="http://www.w3.org/2000/svg" viewBox="0 0 23 23" fill="#ffffff"><path d="M0 11.5V2.2C0 1 1 0 2.2 0h18.5c1.4 0 2.3.9 2.3 2.3v18.4c0 .8-.2 1.4-.9 1.9-.4.3-.9.4-1.4.4H2.2c-.5 0-1-.1-1.4-.5-.5-.4-.8-1-.8-1.7v-7.6-1.7zm11.5-9.3h-9c-.3 0-.3 0-.3.3v18.1c0 .3.1.3.3.3h18c.4 0 .4 0 .4-.4V2.6c0-.3 0-.3-.3-.3-3.1-.1-6.1-.1-9.1-.1z"/><path d="M7.4 5.9C8 6.5 8.6 7 9.1 7.6L10.5 9c.1.1.2.2 0 .4l-1.2 1.2c-.1.1-.2.1-.3 0L6.1 7.7c0-.1-.1-.2-.2-.3-.1.1 0 .2 0 .3v1.5c0 .2-.1.3-.3.3H4c-.2 0-.3-.1-.3-.3V3.9c0-.2.1-.3.3-.3h5.3c.2 0 .3.1.3.3v1.6c0 .2-.1.3-.3.3H7.8c-.2.1-.3 0-.4.1zM15.5 17c-.1-.1-.3-.2-.4-.4l-2.7-2.7c-.2-.2-.2-.3 0-.4.4-.3.7-.7 1.1-1.1.2-.2.2-.2.5 0l2.8 2.8.2.2v-1.6c0-.5-.1-.5.5-.5h1.4c.2 0 .3.1.3.3v5.3c0 .2-.1.3-.3.3h-5.3c-.2 0-.3-.1-.3-.3v-1.6c0-.2.1-.3.3-.3.7.1 1.3.1 1.9 0 0 .1 0 0 0 0z"/></svg>
