<svg xmlns="http://www.w3.org/2000/svg" viewBox="0 0 448 256" fill="#192144" fill-opacity="0.3"><g data-name="Слой 2"><g data-name="Layer 1"><path d="M224 0C142.1 0 78.3 48.8 0 128c67.4 67.7 124 128 224 128s173.4-76.4 224-126.6C396.2 70.6 322.8 0 224 0zm0 219.3c-49.4 0-89.6-41-89.6-91.3s40.2-91.3 89.6-91.3 89.6 41 89.6 91.3-40.2 91.3-89.6 91.3z"/><path d="M224 96a32.11 32.11 0 0 1 7.6-20.7 47.72 47.72 0 0 0-7.6-.6c-28.8 0-52.3 23.9-52.3 53.3s23.5 53.3 52.3 53.3 52.3-23.9 52.3-53.3c0-2.3-.2-4.6-.4-6.9A32 32 0 0 1 224 96z"/></g></g></svg>
